<?xml version="1.0" encoding="utf-8"?>
<!-- Generator: Adobe Illustrator 25.0.0, SVG Export Plug-In . SVG Version: 6.00 Build 0)  -->
<svg version="1.1"
	 id="svg361608" xmlns:cc="http://creativecommons.org/ns#" xmlns:dc="http://purl.org/dc/elements/1.1/" xmlns:rdf="http://www.w3.org/1999/02/22-rdf-syntax-ns#" xmlns:svg="http://www.w3.org/2000/svg"
	 xmlns="http://www.w3.org/2000/svg" xmlns:xlink="http://www.w3.org/1999/xlink" x="0px" y="0px" viewBox="0 0 455.2 65.8"
	 style="enable-background:new 0 0 455.2 65.8;" xml:space="preserve">
<style type="text/css">
	.st0{clip-path:url(#SVGID_3_);}
	.st1{fill:#302359;}
	.st2{fill:#4B1F5C;}
	.st3{fill:#661A60;}
	.st4{fill:#811663;}
	.st5{fill:#9D1167;}
	.st6{fill:#B80D6A;}
	.st7{fill:#D3086E;}
	.st8{fill:#EE0471;}
</style>
<g id="logo-group">
	<g id="logo-center" transform="translate(0 0)">
		<g>
			<defs>
				<polygon id="SVGID_1_" points="-283.4,-350.1 -282.4,-350.1 -283.4,-349.1 				"/>
			</defs>
			<defs>
				<polygon id="SVGID_2_" points="-285.4,-352.1 -286.4,-352.1 -285.4,-353.1 				"/>
			</defs>
			<clipPath id="SVGID_3_">
				<use xlink:href="#SVGID_1_"  style="overflow:visible;"/>
			</clipPath>
			<clipPath id="SVGID_4_" class="st0">
				<use xlink:href="#SVGID_2_"  style="overflow:visible;"/>
			</clipPath>
		</g>
		<g id="slogan" transform="translate(0 0)">
		</g>
		<g id="title" transform="translate(0 0)">
			<path id="path361617" class="st1" d="M28.8,0.9c7.8,0,14.3,2.5,19.3,7.5c5.1,5,7.6,11.4,7.6,19.2v10.6c0,7.9-2.5,14.3-7.6,19.2
				c-5.1,5-11.5,7.4-19.3,7.4H0v-7.7l6.8-1.3V10L0,8.7V0.9h6.8H28.8z M19.6,10.8v44.3h8.5c4.6,0,8.2-1.6,10.8-4.7s3.9-7.2,3.9-12.2
				V27.6c0-5-1.3-9-3.9-12.1s-6.2-4.7-10.8-4.7H19.6z"/>
			<path id="path361619" class="st2" d="M62,8.7V0.9h26.5v7.7L81.7,10v45.9l6.9,1.3v7.7H62v-7.7l6.9-1.3V10L62,8.7z"/>
			<path id="path361621" class="st3" d="M92.7,57.2l4.6-0.7l19.5-55.6h13.1l19.3,55.6l4.6,0.7v7.7H132v-7.7l4.4-0.8l-2.8-8.8h-20.7
				l-2.8,8.8l4.4,0.8v7.7H92.7V57.2z M115.9,38.2h14.7l-7.2-22.5h-0.3L115.9,38.2z"/>
			<path id="path361623" class="st4" d="M208.4,57.8c-2.1,2.1-5.1,3.9-9.1,5.6c-4,1.6-9,2.5-15.1,2.5c-8.6,0-15.7-2.9-21.1-8.7
				c-5.4-5.8-8.1-13.3-8.1-22.6v-2.2c0-9.6,2.7-17.4,8-23.4c5.4-6,12.3-9,21-9c5,0,9.6,0.8,13.7,2.4c4.2,1.6,7.6,3.7,10.4,6.5v12.9
				h-9.5l-1.8-8.6c-1.2-1-2.7-1.8-4.7-2.4c-1.9-0.6-4.1-0.9-6.6-0.9c-5.6,0-9.9,2.1-13.1,6.2s-4.7,9.5-4.7,16.2v2.3
				c0,6.5,1.5,11.7,4.6,15.6c3,3.9,7.4,5.8,13.2,5.8c2.6,0,4.7-0.2,6.2-0.7c1.6-0.4,2.9-1,3.8-1.5V42.9l-9.1-0.7v-9h22V57.8z"/>
			<path id="path361625" class="st5" d="M273.3,33.4c0,9.4-2.7,17.1-8,23.2s-12.4,9.2-21,9.2c-8.6,0-15.6-3.1-21-9.2
				c-5.3-6.1-8-13.9-8-23.2v-1c0-9.3,2.7-17.1,8-23.2S235.5,0,244.2,0c8.7,0,15.7,3.1,21,9.2c5.4,6.2,8.1,13.9,8.1,23.2V33.4z
				 M260.5,32.3c0-6.6-1.4-12-4.1-16.1s-6.8-6.2-12.2-6.2s-9.4,2.1-12.1,6.2c-2.6,4.1-4,9.5-4,16.2v1.1c0,6.7,1.3,12.2,4,16.3
				c2.7,4.1,6.7,6.2,12.1,6.2c5.4,0,9.5-2.1,12.2-6.2c2.7-4.1,4.1-9.6,4.1-16.3V32.3z"/>
			<path id="path361627" class="st6" d="M343.8,0.9v7.7L337,10v54.9h-12.8l-25.8-43.1l-0.3,0v34l6.9,1.3v7.7h-26.5v-7.7l6.8-1.3V10
				l-6.8-1.3V0.9h6.8h12.8L323.9,44l0.3,0V10l-6.9-1.3V0.9H337H343.8z"/>
			<path id="path361629" class="st7" d="M341.8,57.2l4.6-0.7l19.5-55.6h13.1l19.3,55.6l4.6,0.7v7.7H381v-7.7l4.4-0.8l-2.8-8.8h-20.7
				l-2.8,8.8l4.4,0.8v7.7h-21.8V57.2z M365,38.2h14.7l-7.2-22.5h-0.3L365,38.2z"/>
			<path id="path361631" class="st8" d="M407.1,64.9v-7.7l6.8-1.3V10l-6.8-1.3V0.9h6.8h12.8h6.9v7.7l-6.9,1.3v45.1h18.1l0.6-8h9.8
				v17.9H407.1z"/>
		</g>
		
			<image style="display:none;overflow:visible;enable-background:new    ;" width="200" height="200" id="icon" xlink:href="ACFF7AE80D402BCA.png"  transform="matrix(0.75 0 0 0.75 152.6147 -351.085)">
		</image>
	</g>
</g>
</svg>
